# xmcd
#
# Track frame offsets:
#   150
#   7327
#   13156
#
# Disc length: 319 seconds
#
# Revision: 0
# Processed by: cddbd v1.5.1PL0 Copyright (c) Steve Scherf et al.
# Submitted via: GXTranscoder 2.0.1939
#
DISCID=1f013d03
DTITLE=qwe - er
DYEAR=2005
DGENRE=Alternative
TTITLE0=a01
TTITLE1=a02
TTITLE2=a03
EXTD=we
EXTT0=
EXTT1=
EXTT2=
PLAYORDER=
